<?xml version="1.0" encoding="utf-8"?>
<!-- Generator: Adobe Illustrator 17.0.1, SVG Export Plug-In . SVG Version: 6.00 Build 0)  -->
<!DOCTYPE svg PUBLIC "-//W3C//DTD SVG 1.1//EN" "http://www.w3.org/Graphics/SVG/1.1/DTD/svg11.dtd">
<svg version="1.1" xmlns="http://www.w3.org/2000/svg" xmlns:xlink="http://www.w3.org/1999/xlink" x="0px" y="0px" width="15.58px"
	 height="16.26px" viewBox="0 0 15.58 16.26" enable-background="new 0 0 15.58 16.26" xml:space="preserve">
<symbol  id="Arrow_30" viewBox="-22.86 -7.67 45.72 15.34">
	<polygon fill="none" points="-22.86,-7.67 22.86,-7.67 22.86,7.67 -22.86,7.67 	"/>
	<g>
		<polygon points="-5.74,-3.17 -5.75,-7.67 22.86,0 -5.74,7.67 -5.74,3.18 -22.86,3.18 -22.86,-3.17 		"/>
	</g>
</symbol>
<g id="PFO_Device">
	<circle fill="#ffffff" stroke="#000000" stroke-width="1.5" stroke-miterlimit="10" cx="7.79" cy="7.54" r="7.04"/>
	<line fill="none" stroke="#F15A29" stroke-miterlimit="10" x1="8.84" y1="8.95" x2="12.77" y2="15.76"/>
	<path fill="none" stroke="#F15A29" stroke-miterlimit="10" d="M11.6,6.29c-0.58,1.81-2.87,3.73-5.11,4.29
		c-2.24,0.56-3.58-0.45-2.99-2.26c0.59-1.81,2.87-3.73,5.11-4.29C10.85,3.47,12.19,4.48,11.6,6.29z"/>
	<path fill="none" stroke="#F15A29" stroke-width="0.75" stroke-miterlimit="10" d="M9.77,6.62c-0.4,0.89-1.71,1.92-2.94,2.3
		C5.61,9.3,4.94,8.88,5.34,7.99c0.4-0.89,1.72-1.92,2.94-2.3C9.5,5.31,10.17,5.73,9.77,6.62z"/>
</g>
<g id="Aortic_Balloon_Pump">
	<circle fill="#ffffff" stroke="#754C29" stroke-width="1.5" stroke-miterlimit="10" cx="7.79" cy="8.13" r="7.04"/>
	<line fill="none" stroke="#BE1E2D" stroke-miterlimit="10" x1="3.68" y1="2.95" x2="10.57" y2="14.86"/>
	<line fill="none" stroke="#BE1E2D" stroke-miterlimit="10" x1="5.23" y1="1.66" x2="12.05" y2="13.42"/>

		<ellipse transform="matrix(0.8661 -0.4999 0.4999 0.8661 -2.9763 4.9519)" fill="none" stroke="#BE1E2D" stroke-miterlimit="10" cx="7.75" cy="8.03" rx="2.75" ry="2.28"/>
	<path fill="none" stroke="#000000" stroke-width="0.5" stroke-miterlimit="10" d="M5.51,11.3c-0.73-0.06-1.37-0.41-1.72-1.02
		C3.4,9.6,3.47,8.76,3.89,8.04"/>
	<path fill="none" stroke="#000000" stroke-width="0.5" stroke-miterlimit="10" d="M11.62,7.91c0.35-0.64,0.4-1.37,0.09-2
		c-0.35-0.7-1.09-1.1-1.93-1.14"/>
</g>
<g id="Brachytherapy">
	<g>
		<line fill="none" stroke="#429BD6" stroke-miterlimit="10" x1="10.02" y1="1.89" x2="14.15" y2="10.76"/>
		<line fill="none" stroke="#429BD6" stroke-width="2" stroke-miterlimit="10" x1="8.33" y1="1.07" x2="13.71" y2="11.51"/>
		<line fill="none" stroke="#ED1C24" stroke-miterlimit="10" x1="5.32" y1="4.86" x2="8.62" y2="6.35"/>
		<line fill="none" stroke="#ED1C24" stroke-miterlimit="10" x1="4.82" y1="6.86" x2="5.86" y2="4.55"/>
		<line fill="none" stroke="#ED1C24" stroke-miterlimit="10" x1="8" y1="6.61" x2="9.5" y2="3.32"/>
		
			<use xlink:href="#Arrow_30"  width="45.72" height="15.34" x="-22.86" y="-7.67" transform="matrix(-0.0366 0.0735 -0.0832 -0.0415 4.0258 8.444)" overflow="visible"/>
		<line fill="none" stroke="#ED1C24" stroke-miterlimit="10" x1="8.92" y1="3.59" x2="12.2" y2="5.12"/>
		<line fill="none" stroke="#ED1C24" stroke-miterlimit="10" x1="6.7" y1="7.89" x2="10" y2="9.37"/>
		<line fill="none" stroke="#ED1C24" stroke-miterlimit="10" x1="6.24" y1="10.11" x2="7.28" y2="7.81"/>
		<line fill="none" stroke="#ED1C24" stroke-miterlimit="10" x1="9.38" y1="9.64" x2="10.88" y2="6.34"/>
		
			<use xlink:href="#Arrow_30"  width="45.72" height="15.34" x="-22.86" y="-7.67" transform="matrix(-0.0366 0.0735 -0.0832 -0.0415 5.4936 11.6979)" overflow="visible"/>
		<line fill="none" stroke="#ED1C24" stroke-miterlimit="10" x1="10.3" y1="6.61" x2="13.58" y2="8.15"/>
		
			<ellipse transform="matrix(0.8663 -0.4996 0.4996 0.8663 -1.1499 7.1613)" fill="#ED1C24" cx="12.8" cy="5.73" rx="1.49" ry="3.82"/>
		<circle fill="none" stroke="#2B3990" stroke-width="1.5" stroke-miterlimit="10" cx="7.52" cy="8.15" r="7.04"/>
	</g>
</g>
<g id="Percutanious_VAD">
	<g>
		<line fill="none" stroke="#4B5CA9" stroke-width="4" stroke-miterlimit="10" x1="10.53" y1="10.2" x2="12.43" y2="13.47"/>
		<g>
			<path fill="none" stroke="#39B54A" stroke-width="1.5" stroke-miterlimit="10" d="M7.98,5.94C7.4,4.85,6.07,4.43,4.99,5
				C3.93,5.57,3.53,6.91,4.1,8"/>
		</g>
		<line fill="none" stroke="#39B54A" stroke-width="1.5" stroke-miterlimit="10" x1="7.87" y1="5.75" x2="12.3" y2="12.95"/>
		<circle fill="none" stroke="#000000" stroke-width="1.5" stroke-miterlimit="10" cx="7.79" cy="8.13" r="7.04"/>
	</g>
</g>
<g id="Valve_Placement">
	<g>
		<g>
			<line fill="none" stroke="#ED1C24" stroke-width="1.5" stroke-miterlimit="10" x1="12.78" y1="13.31" x2="8" y2="8.23"/>
			<line fill="none" stroke="#ED1C24" stroke-width="1.5" stroke-miterlimit="10" x1="9.95" y1="1.25" x2="8.2" y2="8.32"/>
			<line fill="none" stroke="#ED1C24" stroke-width="1.5" stroke-miterlimit="10" x1="0.66" y1="9.34" x2="8.08" y2="8.36"/>
		</g>
		<circle fill="none" stroke="#000000" stroke-width="1.5" stroke-miterlimit="10" cx="7.89" cy="8.13" r="7.04"/>
	</g>
</g>
<g id="IVC_Filter">
	<g>
		<g>
			<g>
				<line fill="none" stroke="#939598" stroke-width="0.5" stroke-miterlimit="10" x1="12.81" y1="13.25" x2="3.38" y2="3.24"/>
				<line fill="none" stroke="#939598" stroke-width="0.5" stroke-miterlimit="10" x1="13.06" y1="13.54" x2="5.63" y2="1.96"/>
				<line fill="none" stroke="#939598" stroke-width="0.5" stroke-miterlimit="10" x1="13.11" y1="13.48" x2="1.94" y2="5.46"/>
			</g>
			<line fill="none" stroke="#939598" stroke-width="0.5" stroke-miterlimit="10" x1="1.2" y1="7.53" x2="13.14" y2="13.57"/>
			<line fill="none" stroke="#939598" stroke-width="0.5" stroke-miterlimit="10" x1="8.01" y1="1.46" x2="13.13" y2="13.62"/>
		</g>
		<circle fill="none" stroke="#9E1F63" stroke-width="1.5" stroke-miterlimit="10" cx="7.79" cy="8.13" r="7.04"/>
	</g>
</g>
<g id="Biopsy">
	<g>
		<g>
			<polyline points="6.99,1.11 6.3,2.81 8,3.5 			"/>
			<polyline points="8.21,3.84 7.52,5.54 9.22,6.23 			"/>
			<polyline points="9.36,6.63 8.67,8.33 10.37,9.02 			"/>
		</g>
		<line fill="none" stroke="#F15A29" stroke-width="1.5" stroke-miterlimit="10" x1="1.2" y1="7.48" x2="13.06" y2="13.48"/>
		<line fill="none" stroke="#F15A29" stroke-width="1.5" stroke-miterlimit="10" x1="7.97" y1="1.46" x2="13.05" y2="13.53"/>
		<polyline points="2.36,7.26 4.1,6.67 4.69,8.41 		"/>
		<polyline points="5.02,8.64 6.75,8.05 7.34,9.78 		"/>
		<polyline points="7.74,9.95 9.47,9.36 10.06,11.1 		"/>
		<circle fill="none" stroke="#5E5DA9" stroke-width="1.5" stroke-miterlimit="10" cx="7.79" cy="8.13" r="7.04"/>
		<g>
			<polyline points="6.99,1.11 6.3,2.81 8,3.5 			"/>
			<polyline points="8.21,3.84 7.52,5.54 9.22,6.23 			"/>
			<polyline points="9.36,6.63 8.67,8.33 10.37,9.02 			"/>
		</g>
		<line fill="none" stroke="#F15A29" stroke-width="1.5" stroke-miterlimit="10" x1="1.2" y1="7.48" x2="13.06" y2="13.48"/>
		<line fill="none" stroke="#F15A29" stroke-width="1.5" stroke-miterlimit="10" x1="7.97" y1="1.46" x2="13.05" y2="13.53"/>
		<polyline points="2.36,7.26 4.1,6.67 4.69,8.41 		"/>
		<polyline points="5.02,8.64 6.75,8.05 7.34,9.78 		"/>
		<polyline points="7.74,9.95 9.47,9.36 10.06,11.1 		"/>
		<circle fill="none" stroke="#5E5DA9" stroke-width="1.5" stroke-miterlimit="10" cx="7.79" cy="8.13" r="7.04"/>
	</g>
</g>
<g id="Valvuloplasty">
	<g>
		<circle fill="none" stroke="#F7941E" stroke-width="1.5" stroke-miterlimit="10" cx="7.79" cy="8.06" r="7.04"/>
		<line fill="none" stroke="#F7941E" stroke-miterlimit="10" x1="3.36" y1="-0.01" x2="12.77" y2="16.28"/>
		<circle fill="none" stroke="#F7941E" stroke-width="1.5" stroke-miterlimit="10" cx="7.8" cy="8.03" r="4.51"/>
	</g>
</g>
<g id="Thrombolysis">
	<g>
		<line fill="none" stroke="#429BD6" stroke-width="2" stroke-miterlimit="10" x1="6.23" y1="1.36" x2="13.13" y2="13.27"/>
		<line fill="none" stroke="#429BD6" stroke-width="2" stroke-miterlimit="10" x1="7.04" y1="1.01" x2="13.6" y2="12.53"/>
		<circle fill="none" stroke="#FFFFFF" stroke-width="2" stroke-miterlimit="10" cx="9.76" cy="9.89" r="1.1"/>
		<line fill="none" stroke="#429BD6" stroke-width="2" stroke-miterlimit="10" x1="8.16" y1="1.17" x2="14.08" y2="11.25"/>
		<line fill="none" stroke="#429BD6" stroke-width="2" stroke-miterlimit="10" x1="9.78" y1="1.36" x2="14.07" y2="10.58"/>
		<line fill="none" stroke="#429BD6" stroke-width="2" stroke-miterlimit="10" x1="11.23" y1="2.38" x2="14.46" y2="9.57"/>
		
			<use xlink:href="#Arrow_30"  width="45.72" height="15.34" x="-22.86" y="-7.67" transform="matrix(-0.1191 0.0607 -0.0687 -0.1348 8.8744 10.2971)" overflow="visible"/>
		<circle fill="none" stroke="#FFFFFF" stroke-width="2" stroke-miterlimit="10" cx="7.47" cy="5.68" r="1.1"/>
		
			<use xlink:href="#Arrow_30"  width="45.72" height="15.34" x="-22.86" y="-7.67" transform="matrix(-0.1204 0.0579 -0.0655 -0.1364 6.602 6.0676)" overflow="visible"/>
		<circle fill="none" stroke="#000000" stroke-width="1.5" stroke-miterlimit="10" cx="7.79" cy="8.21" r="7.04"/>
	</g>
</g>
<g id="Aneurysum_Repair">
	<g>
		<line fill="none" stroke="#DD4090" stroke-width="1.5" stroke-miterlimit="10" x1="3.01" y1="3.16" x2="9.36" y2="14.89"/>
		<line fill="none" stroke="#DD4090" stroke-width="1.5" stroke-miterlimit="10" x1="6.1" y1="1.24" x2="12.75" y2="12.77"/>
		
			<ellipse transform="matrix(0.866 -0.5 0.5 0.866 -3.0815 5.0559)" fill="#FFFFFF" stroke="#000000" stroke-width="1.5" stroke-miterlimit="10" cx="7.89" cy="8.28" rx="3.09" ry="3.8"/>
		<line fill="none" stroke="#FFFFFF" stroke-miterlimit="10" x1="3.91" y1="2.71" x2="10.26" y2="14.44"/>
		<line fill="none" stroke="#FFFFFF" stroke-miterlimit="10" x1="5.35" y1="1.88" x2="12" y2="13.41"/>
		<line fill="none" stroke="#FFFFFF" stroke-miterlimit="10" x1="5.17" y1="1.93" x2="11.81" y2="13.47"/>
		<line fill="none" stroke="#FFFFFF" stroke-miterlimit="10" x1="3.94" y1="2.79" x2="10.58" y2="14.32"/>
		<line fill="none" stroke="#FFFFFF" stroke-miterlimit="10" x1="4.13" y1="2.41" x2="10.78" y2="13.95"/>
		<line fill="none" stroke="#FFFFFF" stroke-miterlimit="10" x1="4.4" y1="1.72" x2="11.04" y2="13.26"/>
		<circle fill="none" stroke="#DD4090" stroke-width="1.5" stroke-miterlimit="10" cx="7.79" cy="8.13" r="7.04"/>
	</g>
</g>
<g id="IVUS">
	<g>
		<line fill="none" stroke="#429BD6" stroke-width="1.5" stroke-miterlimit="10" x1="3.19" y1="2.88" x2="10.09" y2="14.79"/>
		<line fill="none" stroke="#429BD6" stroke-width="1.5" stroke-miterlimit="10" x1="5.83" y1="1.6" x2="12.64" y2="13.36"/>
		<ellipse transform="matrix(0.8662 -0.4997 0.4997 0.8662 -2.99 5.0353)" cx="7.91" cy="8.1" rx="1.49" ry="3.3"/>
		<circle fill="none" stroke="#429BD6" stroke-width="1.5" stroke-miterlimit="10" cx="7.79" cy="8.13" r="7.04"/>
	</g>
</g>
<g id="Thrombectomy">
	<g>
		<line fill="none" stroke="#F15A29" stroke-width="4" stroke-miterlimit="10" x1="7.14" y1="7.13" x2="11.41" y2="14.5"/>
		<circle fill="none" stroke="#F15A29" stroke-width="1.5" stroke-miterlimit="10" cx="7.79" cy="8.13" r="7.04"/>
		<g>
			<path fill="none" stroke="#39B54A" stroke-miterlimit="10" d="M6.49,7.51c-0.6-1.08-1.94-1.48-3-0.89
				C2.43,7.21,2.06,8.56,2.65,9.63c0.6,1.08,1.94,1.48,3,0.89"/>
			<polyline points="5.65,12.01 6.11,9.9 4,9.44 			"/>
		</g>
		<g>
			<path fill="none" stroke="#39B54A" stroke-miterlimit="10" d="M7.93,6.68C7.32,5.61,7.68,4.25,8.74,3.66
				c1.05-0.59,2.4-0.21,3.01,0.86c0.61,1.07,0.24,2.43-0.81,3.03"/>
			<polyline points="12.21,8.32 10.17,7.61 10.88,5.57 			"/>
		</g>
	</g>
</g>
<g id="Atherectomy">
	<g>
		<line fill="none" stroke="#0094A0" stroke-width="1.5" stroke-miterlimit="10" x1="4.96" y1="3.08" x2="4.87" y2="10.04"/>
		<line fill="none" stroke="#0094A0" stroke-width="1.5" stroke-miterlimit="10" x1="10.64" y1="12.93" x2="4.57" y2="9.52"/>
		<line fill="none" stroke="#0094A0" stroke-width="1.5" stroke-miterlimit="10" x1="10.78" y1="5.94" x2="10.69" y2="12.9"/>
		<line fill="none" stroke="#0094A0" stroke-width="1.5" stroke-miterlimit="10" x1="11.08" y1="6.45" x2="5" y2="3.05"/>
		<circle fill="none" stroke="#0094A0" stroke-width="1.5" stroke-miterlimit="10" cx="7.79" cy="7.93" r="7.04"/>
		<line fill="none" stroke="#0094A0" stroke-width="1.5" stroke-miterlimit="10" x1="2.59" y1="-1.08" x2="13.23" y2="17.35"/>
		<line fill="none" stroke="#FFFFFF" stroke-miterlimit="10" x1="3.27" y1="8.26" x2="5.27" y2="11.73"/>
		<line fill="none" stroke="#FFFFFF" stroke-miterlimit="10" x1="10.33" y1="4.22" x2="12.33" y2="7.68"/>
	</g>
</g>
<g id="Angiography">
	<g>
		
			<rect x="4.16" y="1.67" transform="matrix(0.8661 -0.4998 0.4998 0.8661 -3.0194 4.9935)" fill="#8DC63F" width="7.31" height="12.92"/>
		<line fill="none" stroke="#4B5CA9" stroke-width="1.5" stroke-miterlimit="10" x1="1.62" y1="4.66" x2="7.76" y2="15.24"/>
		<line fill="none" stroke="#4B5CA9" stroke-width="1.5" stroke-miterlimit="10" x1="7.95" y1="1.29" x2="13.83" y2="11.37"/>
		<circle fill="none" stroke="#4B5CA9" stroke-width="1.5" stroke-miterlimit="10" cx="7.79" cy="8.09" r="7.04"/>
	</g>
</g>
<g id="Embolization">
	<g>
		<circle fill="none" stroke="#7F3F98" stroke-miterlimit="10" cx="5.84" cy="4.92" r="3.12"/>
		<circle fill="none" stroke="#7F3F98" stroke-miterlimit="10" cx="7.05" cy="7.01" r="3.12"/>
		<circle fill="#FFFFFF" fill-opacity="0.6" cx="6.95" cy="7" r="2.82"/>
		<circle fill="#FFFFFF" fill-opacity="0.6" cx="8.16" cy="8.93" r="2.82"/>
		<circle fill="none" stroke="#7F3F98" stroke-miterlimit="10" cx="8.16" cy="8.93" r="3.12"/>
		<circle fill="#FFFFFF" fill-opacity="0.6" cx="9.4" cy="11.08" r="2.82"/>
		<circle fill="none" stroke="#7F3F98" stroke-miterlimit="10" cx="9.37" cy="11.1" r="3.12"/>
		<circle fill="none" stroke="#7F3F98" stroke-width="1.5" stroke-miterlimit="10" cx="7.79" cy="8.13" r="7.04"/>
	</g>
</g>
<g id="Access">
	<g>
		<circle fill="none" stroke="#000000" stroke-width="1.5" stroke-miterlimit="10" cx="6.9" cy="6.17" r="7.04"/>
		
			<rect x="7.45" y="7.55" transform="matrix(0.8661 -0.4999 0.4999 0.8661 -4.2212 6.3057)" fill="#FFFFFF" width="4.43" height="6.96"/>
		<line fill="none" stroke="#ED1C24" stroke-width="1.5" stroke-miterlimit="10" x1="5.52" y1="8.74" x2="9.6" y2="15.78"/>
		<line fill="none" stroke="#ED1C24" stroke-width="1.5" stroke-miterlimit="10" x1="9.81" y1="6.28" x2="13.88" y2="13.31"/>
		<rect x="7.94" y="13.81" transform="matrix(0.866 -0.5 0.5 0.866 -5.6673 7.9058)" fill="#FFFFFF" width="7.96" height="1.43"/>
	</g>
</g>
<g id="Angioplasty">
	<g>
		<circle fill="none" stroke="#ED1C24" stroke-width="1.5" stroke-miterlimit="10" cx="7.79" cy="8.06" r="7.04"/>
		
			<ellipse transform="matrix(0.866 -0.5001 0.5001 0.866 -2.9615 4.9879)" fill="none" stroke="#ED1C24" stroke-width="1.5" stroke-miterlimit="10" cx="7.83" cy="8.02" rx="2.72" ry="5.33"/>
		<line fill="none" stroke="#ED1C24" stroke-miterlimit="10" x1="3.36" y1="-0.01" x2="12.77" y2="16.28"/>
	</g>
</g>
<g id="Stent">
	<g>
		<line fill="none" stroke="#F7941E" stroke-width="0.75" stroke-miterlimit="10" x1="3.93" y1="2.64" x2="3.16" y2="7.4"/>
		<line fill="none" stroke="#F7941E" stroke-miterlimit="10" x1="1.63" y1="4.52" x2="7.82" y2="15.2"/>
		<line fill="none" stroke="#F7941E" stroke-miterlimit="10" x1="8.09" y1="1.3" x2="13.99" y2="11.49"/>
		<line fill="none" stroke="#F7941E" stroke-width="0.75" stroke-miterlimit="10" x1="2.38" y1="3.58" x2="11.42" y2="7.02"/>
		<line fill="none" stroke="#F7941E" stroke-width="0.75" stroke-miterlimit="10" x1="2.54" y1="6.44" x2="13.69" y2="10.68"/>
		<line fill="none" stroke="#F7941E" stroke-width="0.75" stroke-miterlimit="10" x1="4.6" y1="10" x2="12.85" y2="13.15"/>
		<line fill="none" stroke="#F7941E" stroke-width="0.75" stroke-miterlimit="10" x1="6.64" y1="1.03" x2="5.09" y2="10.7"/>
		<line fill="none" stroke="#F7941E" stroke-width="0.75" stroke-miterlimit="10" x1="9.01" y1="2.77" x2="7.16" y2="14.25"/>
		<line fill="none" stroke="#F7941E" stroke-width="0.75" stroke-miterlimit="10" x1="11.11" y1="6.11" x2="9.66" y2="15.06"/>
		<circle fill="none" stroke="#F7941E" stroke-width="1.5" stroke-miterlimit="10" cx="7.79" cy="8.19" r="7.04"/>
		<line fill="none" stroke="#F7941E" stroke-miterlimit="10" x1="13.08" y1="9.75" x2="12.48" y2="13.49"/>
		<line fill="none" stroke="#F7941E" stroke-width="0.75" stroke-miterlimit="10" x1="4.77" y1="1.8" x2="9.43" y2="3.57"/>
		<line fill="none" stroke="#F7941E" stroke-miterlimit="10" x1="6.58" y1="13.4" x2="10.41" y2="14.86"/>
	</g>
</g>
<g id="Occlusion">
	<g>
		<circle fill="#ffffff" stroke="#7F3F98" stroke-width="1.5" stroke-miterlimit="10" cx="7.79" cy="8.04" r="7.04"/>
		<line fill="none" stroke="#7F3F98" stroke-miterlimit="10" x1="7.49" y1="9.34" x2="7.17" y2="14.05"/>
		<line fill="none" stroke="#7F3F98" stroke-miterlimit="10" x1="6.57" y1="7.75" x2="2.31" y2="5.66"/>
		<line fill="none" stroke="#7F3F98" stroke-miterlimit="10" x1="7.52" y1="9.51" x2="6.43" y2="7.63"/>
		<line fill="none" stroke="#7F3F98" stroke-miterlimit="10" x1="3.32" y1="6.12" x2="7.24" y2="12.9"/>
		<line fill="none" stroke="#7F3F98" stroke-miterlimit="10" x1="4.21" y1="6.53" x2="7.37" y2="12"/>
		<line fill="none" stroke="#7F3F98" stroke-miterlimit="10" x1="5.19" y1="7.02" x2="7.35" y2="10.77"/>
		<line fill="none" stroke="#7F3F98" stroke-miterlimit="10" x1="5.82" y1="7.39" x2="7.46" y2="10.24"/>
		<line fill="none" stroke="#7F3F98" stroke-miterlimit="10" x1="9.2" y1="8.35" x2="13.44" y2="10.43"/>
		<line fill="none" stroke="#7F3F98" stroke-miterlimit="10" x1="8.28" y1="6.76" x2="8.6" y2="2.03"/>
		<line fill="none" stroke="#7F3F98" stroke-miterlimit="10" x1="9.33" y1="8.46" x2="8.25" y2="6.58"/>
		<line fill="none" stroke="#7F3F98" stroke-miterlimit="10" x1="8.49" y1="3.13" x2="12.41" y2="9.92"/>
		<line fill="none" stroke="#7F3F98" stroke-miterlimit="10" x1="8.4" y1="4.11" x2="11.57" y2="9.58"/>
		<line fill="none" stroke="#7F3F98" stroke-miterlimit="10" x1="8.34" y1="5.2" x2="10.5" y2="8.94"/>
		<line fill="none" stroke="#7F3F98" stroke-miterlimit="10" x1="8.35" y1="5.93" x2="9.99" y2="8.78"/>
		<line fill="none" stroke="#7F3F98" stroke-width="1.5" stroke-miterlimit="10" x1="1.8" y1="4.68" x2="7.93" y2="15.27"/>
		<line fill="none" stroke="#7F3F98" stroke-width="1.5" stroke-miterlimit="10" x1="8.13" y1="1.31" x2="14" y2="11.39"/>
		<line fill="none" stroke="#7F3F98" stroke-width="6" stroke-miterlimit="10" x1="5.54" y1="9.58" x2="9.83" y2="7.1"/>
	</g>
</g>
<g id="Stenosis">
	<g>
		<circle fill="#ffffff" stroke="#4B5CA9" stroke-width="1.5" stroke-miterlimit="10" cx="7.79" cy="8.1" r="7.04"/>
		<line fill="none" stroke="#4B5CA9" stroke-miterlimit="10" x1="7.53" y1="9.27" x2="7.21" y2="13.99"/>
		<line fill="none" stroke="#4B5CA9" stroke-miterlimit="10" x1="6.61" y1="7.69" x2="2.35" y2="5.6"/>
		<line fill="none" stroke="#4B5CA9" stroke-miterlimit="10" x1="7.62" y1="9.55" x2="6.43" y2="7.49"/>
		<line fill="none" stroke="#4B5CA9" stroke-miterlimit="10" x1="3.37" y1="6.05" x2="7.29" y2="12.84"/>
		<line fill="none" stroke="#4B5CA9" stroke-miterlimit="10" x1="4.25" y1="6.47" x2="7.41" y2="11.94"/>
		<line fill="none" stroke="#4B5CA9" stroke-miterlimit="10" x1="5.23" y1="6.96" x2="7.39" y2="10.7"/>
		<line fill="none" stroke="#4B5CA9" stroke-miterlimit="10" x1="5.86" y1="7.33" x2="7.51" y2="10.18"/>
		<line fill="none" stroke="#4B5CA9" stroke-miterlimit="10" x1="9.24" y1="8.29" x2="13.48" y2="10.37"/>
		<line fill="none" stroke="#4B5CA9" stroke-miterlimit="10" x1="8.32" y1="6.7" x2="8.65" y2="1.97"/>
		<line fill="none" stroke="#4B5CA9" stroke-miterlimit="10" x1="9.44" y1="8.5" x2="8.25" y2="6.44"/>
		<line fill="none" stroke="#4B5CA9" stroke-miterlimit="10" x1="8.53" y1="3.07" x2="12.45" y2="9.86"/>
		<line fill="none" stroke="#4B5CA9" stroke-miterlimit="10" x1="8.45" y1="4.04" x2="11.61" y2="9.52"/>
		<line fill="none" stroke="#4B5CA9" stroke-miterlimit="10" x1="8.39" y1="5.14" x2="10.55" y2="8.88"/>
		<line fill="none" stroke="#4B5CA9" stroke-miterlimit="10" x1="8.4" y1="5.87" x2="10.04" y2="8.72"/>
		<line fill="none" stroke="#4B5CA9" stroke-width="1.5" stroke-miterlimit="10" x1="1.84" y1="4.62" x2="7.98" y2="15.2"/>
		<line fill="none" stroke="#4B5CA9" stroke-width="1.5" stroke-miterlimit="10" x1="8.17" y1="1.25" x2="14.05" y2="11.33"/>
	</g>
</g>
</svg>
